<svg width="12" height="13" viewBox="0 0 12 13" fill="none" xmlns="http://www.w3.org/2000/svg">
<circle cx="6" cy="7" r="5.95" fill="#95FAB1" stroke="#1D6631" stroke-width="0.1"/>
<path d="M5.876 3.502C6.5 3.502 7.001 3.673 7.379 4.015C7.763 4.351 7.955 4.816 7.955 5.41C7.955 5.998 7.766 6.448 7.388 6.76C7.01 7.066 6.509 7.219 5.885 7.219L5.849 7.912H4.742L4.697 6.382H5.102C5.624 6.382 6.026 6.313 6.308 6.175C6.59 6.037 6.731 5.785 6.731 5.419C6.731 5.155 6.653 4.945 6.497 4.789C6.347 4.633 6.14 4.555 5.876 4.555C5.6 4.555 5.384 4.63 5.228 4.78C5.078 4.93 5.003 5.137 5.003 5.401H3.815C3.809 5.035 3.887 4.708 4.049 4.42C4.211 4.132 4.448 3.907 4.76 3.745C5.078 3.583 5.45 3.502 5.876 3.502ZM5.291 10.063C5.063 10.063 4.874 9.994 4.724 9.856C4.58 9.712 4.508 9.535 4.508 9.325C4.508 9.115 4.58 8.941 4.724 8.803C4.874 8.659 5.063 8.587 5.291 8.587C5.513 8.587 5.696 8.659 5.84 8.803C5.984 8.941 6.056 9.115 6.056 9.325C6.056 9.535 5.984 9.712 5.84 9.856C5.696 9.994 5.513 10.063 5.291 10.063Z" fill="#1D6631"/>
</svg>
