<svg width="36" height="36" viewBox="0 0 36 36" fill="none" xmlns="http://www.w3.org/2000/svg">
<path d="M13.9844 0.25C17.4322 0.25 20.7388 1.61964 23.1768 4.05761C25.6147 6.49558 26.9844 9.80219 26.9844 13.25C26.9844 16.47 25.8044 19.43 23.8644 21.71L24.4044 22.25H25.9844L35.9844 32.25L32.9844 35.25L22.9844 25.25V23.67L22.4444 23.13C20.0855 25.1435 17.0858 26.2498 13.9844 26.25C10.5366 26.25 7.22996 24.8804 4.79199 22.4424C2.35401 20.0044 0.984375 16.6978 0.984375 13.25C0.984375 9.80219 2.35401 6.49558 4.79199 4.05761C7.22996 1.61964 10.5366 0.25 13.9844 0.25ZM13.9844 4.25C8.98438 4.25 4.98438 8.25 4.98438 13.25C4.98438 18.25 8.98438 22.25 13.9844 22.25C18.9844 22.25 22.9844 18.25 22.9844 13.25C22.9844 8.25 18.9844 4.25 13.9844 4.25Z" fill="#48F077"/>
</svg>
